<?xml version="1.0" encoding="UTF-8" standalone="no"?>
<!-- Created with Inkscape (http://www.inkscape.org/) -->

<svg
   xmlns:dc="http://purl.org/dc/elements/1.1/"
   xmlns:cc="http://creativecommons.org/ns#"
   xmlns:rdf="http://www.w3.org/1999/02/22-rdf-syntax-ns#"
   xmlns:svg="http://www.w3.org/2000/svg"
   xmlns="http://www.w3.org/2000/svg"
   xmlns:sodipodi="http://sodipodi.sourceforge.net/DTD/sodipodi-0.dtd"
   xmlns:inkscape="http://www.inkscape.org/namespaces/inkscape"
   width="190"
   height="190"
   viewBox="0 0 190 190"
   id="svg2"
   version="1.1"
   inkscape:version="0.48.4 r9939"
   sodipodi:docname="logo_connected_osx.svg">
  <defs
     id="defs4" />
  <sodipodi:namedview
     id="base"
     pagecolor="#000000"
     bordercolor="#666666"
     borderopacity="1.0"
     inkscape:pageopacity="0.83529412"
     inkscape:pageshadow="2"
     inkscape:zoom="4"
     inkscape:cx="57.45479"
     inkscape:cy="98.799119"
     inkscape:document-units="px"
     inkscape:current-layer="layer1"
     showgrid="false"
     fit-margin-top="0"
     fit-margin-left="0"
     fit-margin-right="0"
     fit-margin-bottom="0"
     inkscape:window-width="1914"
     inkscape:window-height="998"
     inkscape:window-x="0"
     inkscape:window-y="27"
     inkscape:window-maximized="1" />
  <metadata
     id="metadata7">
    <rdf:RDF>
      <cc:Work
         rdf:about="">
        <dc:format>image/svg+xml</dc:format>
        <dc:type
           rdf:resource="http://purl.org/dc/dcmitype/StillImage" />
        <dc:title />
      </cc:Work>
    </rdf:RDF>
  </metadata>
  <g
     inkscape:label="Layer 1"
     inkscape:groupmode="layer"
     id="layer1"
     transform="translate(-241.5312,-173.5)">
    <path
       style="fill:#000000;fill-opacity:1;stroke:none"
       d="M 31 10.5 C 19.643 10.5 10.5 19.643 10.5 31 L 10.5 159 C 10.5 170.357 19.643 179.5 31 179.5 L 42.125 179.5 L 42.125 57.6875 C 42.124991 54.314267 42.197074 51.800936 42.34375 50.1875 C 42.637074 48.574273 43.317073 46.740941 44.34375 44.6875 C 46.39707 40.727614 51.289149 38.750116 59.0625 38.75 C 66.8358 38.750116 72.047461 39.790532 74.6875 41.84375 C 77.474123 43.750528 79.091204 46.593025 79.53125 50.40625 C 85.104532 42.779695 93.838689 38.968866 105.71875 38.96875 C 117.74533 38.968866 129.10574 44.613027 139.8125 55.90625 C 150.51905 67.199671 155.87488 80.352574 155.875 95.3125 C 155.87488 110.27254 150.51905 123.3942 139.8125 134.6875 C 129.2524 145.98084 117.96408 151.625 105.9375 151.625 C 93.910773 151.625 85.176615 148.24667 79.75 141.5 L 79.75 179.5 L 159 179.5 C 170.357 179.5 179.5 170.357 179.5 159 L 179.5 31 C 179.5 19.643 170.357 10.5 159 10.5 L 31 10.5 z M 99.125 76.59375 C 93.551606 76.593828 89.060778 78.571326 85.6875 82.53125 C 82.314118 86.491318 80.624953 90.837981 80.625 95.53125 C 80.624953 100.22464 82.314118 104.54005 85.6875 108.5 C 89.207444 112.31338 93.59494 114.21879 98.875 114.21875 C 104.3016 114.21879 108.86451 112.31338 112.53125 108.5 C 116.3445 104.68672 118.24992 100.3713 118.25 95.53125 C 118.24992 90.691314 116.48867 86.344652 112.96875 82.53125 C 109.44867 78.571326 104.84493 76.593828 99.125 76.59375 z "
       transform="translate(241.5312,173.5)"
       id="rect4424" />
  </g>
</svg>
