<?xml version="1.0" encoding="UTF-8" standalone="no"?>
<!-- Created with Inkscape (http://www.inkscape.org/) -->

<svg
   xmlns:dc="http://purl.org/dc/elements/1.1/"
   xmlns:cc="http://creativecommons.org/ns#"
   xmlns:rdf="http://www.w3.org/1999/02/22-rdf-syntax-ns#"
   xmlns:svg="http://www.w3.org/2000/svg"
   xmlns="http://www.w3.org/2000/svg"
   xmlns:sodipodi="http://sodipodi.sourceforge.net/DTD/sodipodi-0.dtd"
   xmlns:inkscape="http://www.inkscape.org/namespaces/inkscape"
   width="190"
   height="190"
   viewBox="0 0 190 190"
   id="svg2"
   version="1.1"
   inkscape:version="0.48.4 r9939"
   sodipodi:docname="logo_color.svg">
  <defs
     id="defs4" />
  <sodipodi:namedview
     id="base"
     pagecolor="#000000"
     bordercolor="#666666"
     borderopacity="1.0"
     inkscape:pageopacity="0.83529412"
     inkscape:pageshadow="2"
     inkscape:zoom="2.8284271"
     inkscape:cx="86.461718"
     inkscape:cy="97.32293"
     inkscape:document-units="px"
     inkscape:current-layer="layer1"
     showgrid="false"
     fit-margin-top="0"
     fit-margin-left="0"
     fit-margin-right="0"
     fit-margin-bottom="0"
     inkscape:window-width="1914"
     inkscape:window-height="998"
     inkscape:window-x="0"
     inkscape:window-y="27"
     inkscape:window-maximized="1" />
  <metadata
     id="metadata7">
    <rdf:RDF>
      <cc:Work
         rdf:about="">
        <dc:format>image/svg+xml</dc:format>
        <dc:type
           rdf:resource="http://purl.org/dc/dcmitype/StillImage" />
        <dc:title />
      </cc:Work>
    </rdf:RDF>
  </metadata>
  <g
     inkscape:label="Layer 1"
     inkscape:groupmode="layer"
     id="layer1"
     transform="translate(-241.5312,-173.5)">
    <path
       style="fill:#ffffff;fill-opacity:1;stroke:none"
       d="M 59.0625 38.75 C 51.289149 38.750116 46.39707 40.727614 44.34375 44.6875 C 43.317073 46.740941 42.637074 48.574273 42.34375 50.1875 C 42.197074 51.800936 42.124991 54.314267 42.125 57.6875 L 42.125 179.5 L 79.75 179.5 L 79.75 141.5 C 85.176615 148.24667 93.910773 151.625 105.9375 151.625 C 117.96408 151.625 129.2524 145.98084 139.8125 134.6875 C 150.51905 123.3942 155.87488 110.27254 155.875 95.3125 C 155.87488 80.352574 150.51905 67.199671 139.8125 55.90625 C 129.10574 44.613027 117.74533 38.968866 105.71875 38.96875 C 93.838689 38.968866 85.104532 42.779695 79.53125 50.40625 C 79.091204 46.593025 77.474123 43.750528 74.6875 41.84375 C 72.047461 39.790532 66.8358 38.750116 59.0625 38.75 z M 99.125 76.59375 C 104.84493 76.593828 109.44867 78.571326 112.96875 82.53125 C 116.48867 86.344652 118.24992 90.691314 118.25 95.53125 C 118.24992 100.3713 116.3445 104.68672 112.53125 108.5 C 108.86451 112.31338 104.3016 114.21879 98.875 114.21875 C 93.59494 114.21879 89.207444 112.31338 85.6875 108.5 C 82.314118 104.54005 80.624953 100.22464 80.625 95.53125 C 80.624953 90.837981 82.314118 86.491318 85.6875 82.53125 C 89.060778 78.571326 93.551606 76.593828 99.125 76.59375 z "
       transform="translate(241.5312,173.5)"
       id="rect3757" />
    <path
       inkscape:connector-curvature="0"
       style="fill:#2e4153;fill-opacity:1;stroke:none"
       d="m 272.5312,184 c -11.357,0 -20.5,9.143 -20.5,20.5 l 0,128 c 0,11.357 9.143,20.5 20.5,20.5 l 11.125,0 0,-121.8125 c -1e-5,-3.37323 0.0721,-5.88656 0.21875,-7.5 0.29332,-1.61323 0.97332,-3.44656 2,-5.5 2.05332,-3.95989 6.9454,-5.93738 14.71875,-5.9375 7.7733,1.2e-4 12.98496,1.04053 15.625,3.09375 2.78662,1.90678 4.4037,4.74927 4.84375,8.5625 5.57328,-7.62656 14.30744,-11.43738 26.1875,-11.4375 12.02658,1.2e-4 23.38699,5.64428 34.09375,16.9375 10.70655,11.29342 16.06238,24.44632 16.0625,39.40625 -1.2e-4,14.96004 -5.35595,28.0817 -16.0625,39.375 -10.5601,11.29334 -21.84842,16.9375 -33.875,16.9375 -12.02673,0 -20.76089,-3.37833 -26.1875,-10.125 l 0,38 79.25,0 c 11.357,0 20.5,-9.143 20.5,-20.5 l 0,-128 c 0,-11.357 -9.143,-20.5 -20.5,-20.5 l -128,0 z m 68.125,66.09375 c -5.57339,8e-5 -10.06422,1.97758 -13.4375,5.9375 -3.37338,3.96007 -5.06255,8.30673 -5.0625,13 -5e-5,4.69339 1.68912,9.0088 5.0625,12.96875 3.51994,3.81338 7.90744,5.71879 13.1875,5.71875 5.4266,4e-5 9.98951,-1.90537 13.65625,-5.71875 3.81325,-3.81328 5.71867,-8.1287 5.71875,-12.96875 -8e-5,-4.83994 -1.76133,-9.1866 -5.28125,-13 -3.52008,-3.95992 -8.12382,-5.93742 -13.84375,-5.9375 z"
       id="rect4424" />
  </g>
</svg>
