<?xml version="1.0" encoding="UTF-8" standalone="no"?>
<svg
   xmlns:dc="http://purl.org/dc/elements/1.1/"
   xmlns:cc="http://creativecommons.org/ns#"
   xmlns:rdf="http://www.w3.org/1999/02/22-rdf-syntax-ns#"
   xmlns:svg="http://www.w3.org/2000/svg"
   xmlns="http://www.w3.org/2000/svg"
   xml:space="preserve"
   enable-background="new 0 0 425.197 209.764"
   viewBox="0 0 293.464 73.659002"
   height="73.659004"
   width="293.46399"
   y="0px"
   x="0px"
   id="ubuntu__x5F__white_x26_orange_x28_cof_x29_"
   version="1.1"><metadata
     id="metadata35"><rdf:RDF><cc:Work
         rdf:about=""><dc:format>image/svg+xml</dc:format><dc:type
           rdf:resource="http://purl.org/dc/dcmitype/StillImage" /><dc:title></dc:title></cc:Work></rdf:RDF></metadata><defs
     id="defs33" /><g
     transform="translate(-65.867,-68.050999)"
     id="g3" /><g
     transform="translate(-65.867,-68.050999)"
     id="g5" /><g
     transform="translate(-65.867,-68.050999)"
     id="g7" /><g
     transform="translate(-65.867,-68.050999)"
     id="g9" /><g
     transform="translate(-65.867,-68.050999)"
     id="g11"><circle
       style="fill:#ffffff"
       id="circle13"
       r="16.966"
       cy="90.016998"
       cx="337.36499" /><path
       style="fill:#dd4814"
       id="path15"
       d="m 326.783,87.978 c -1.127,0 -2.036,0.912 -2.036,2.039 0,1.123 0.909,2.037 2.036,2.037 1.128,0 2.039,-0.914 2.039,-2.037 0,-1.127 -0.911,-2.039 -2.039,-2.039 z m 14.555,9.266 c -0.976,0.559 -1.308,1.807 -0.747,2.779 0.563,0.977 1.809,1.309 2.784,0.748 0.975,-0.562 1.31,-1.809 0.747,-2.783 -0.563,-0.975 -1.81,-1.309 -2.784,-0.744 z m -10.125,-7.227 c 0,-2.016 0.998,-3.797 2.529,-4.873 l -1.488,-2.498 c -1.784,1.191 -3.112,3.014 -3.664,5.148 0.646,0.525 1.055,1.324 1.055,2.223 0,0.893 -0.408,1.691 -1.055,2.219 0.552,2.133 1.88,3.955 3.664,5.146 l 1.488,-2.496 c -1.531,-1.076 -2.529,-2.855 -2.529,-4.869 z m 5.952,-5.957 c 3.112,0 5.663,2.385 5.931,5.43 l 2.905,-0.047 c -0.144,-2.244 -1.124,-4.26 -2.631,-5.742 -0.776,0.291 -1.672,0.25 -2.445,-0.199 -0.773,-0.447 -1.26,-1.199 -1.394,-2.02 -0.754,-0.207 -1.547,-0.322 -2.366,-0.322 -1.408,0 -2.741,0.332 -3.922,0.918 l 1.415,2.537 c 0.762,-0.356 1.613,-0.555 2.507,-0.555 z m 0,11.908 c -0.895,0 -1.745,-0.197 -2.507,-0.553 l -1.415,2.537 c 1.181,0.588 2.514,0.916 3.922,0.916 0.819,0 1.612,-0.111 2.366,-0.32 0.134,-0.82 0.62,-1.572 1.394,-2.021 0.775,-0.447 1.669,-0.49 2.445,-0.195 1.507,-1.484 2.487,-3.5 2.631,-5.746 l -2.905,-0.041 c -0.268,3.04 -2.819,5.423 -5.931,5.423 z m 4.173,-13.179 c 0.974,0.561 2.221,0.229 2.782,-0.748 0.563,-0.971 0.229,-2.219 -0.745,-2.781 -0.976,-0.562 -2.221,-0.229 -2.784,0.746 -0.561,0.974 -0.229,2.22 0.747,2.783 z" /><g
       id="g17"><path
         style="fill:#ffffff"
         id="path19"
         d="m 104.798,134.53 c -1.725,0.432 -3.999,0.889 -6.826,1.374 -2.83,0.483 -6.102,0.726 -9.817,0.726 -3.23,0 -5.952,-0.472 -8.159,-1.413 -2.209,-0.941 -3.986,-2.274 -5.332,-3.998 -1.348,-1.724 -2.316,-3.757 -2.908,-6.101 -0.594,-2.341 -0.889,-4.939 -0.889,-7.795 l 0,-23.589 7.513,0 0,21.973 c 0,5.117 0.808,8.779 2.424,10.986 1.616,2.211 4.334,3.314 8.159,3.314 0.809,0 1.642,-0.029 2.505,-0.083 0.86,-0.053 1.67,-0.122 2.425,-0.202 0.752,-0.081 1.439,-0.161 2.059,-0.242 0.619,-0.08 1.064,-0.173 1.334,-0.283 l 0,-35.463 7.514,0 0,40.796 z" /><path
         style="fill:#ffffff"
         id="path21"
         d="m 123.134,95.591 c 0.915,-0.592 2.304,-1.211 4.161,-1.857 1.857,-0.646 3.999,-0.969 6.422,-0.969 3.016,0 5.696,0.539 8.039,1.615 2.342,1.078 4.322,2.584 5.938,4.523 1.614,1.939 2.839,4.256 3.675,6.947 0.834,2.695 1.253,5.656 1.253,8.888 0,3.392 -0.5,6.45 -1.494,9.168 -0.999,2.72 -2.412,5.021 -4.242,6.907 -1.832,1.885 -4.039,3.34 -6.625,4.362 -2.584,1.023 -5.493,1.535 -8.725,1.535 -3.502,0 -6.598,-0.244 -9.289,-0.728 -2.693,-0.485 -4.902,-0.97 -6.625,-1.454 l 0,-60.181 7.513,-1.293 0,22.537 z m 0,33.606 c 0.755,0.216 1.818,0.42 3.192,0.605 1.373,0.191 3.082,0.284 5.129,0.284 4.039,0 7.271,-1.334 9.693,-3.999 2.425,-2.666 3.637,-6.45 3.637,-11.349 0,-2.153 -0.216,-4.173 -0.646,-6.062 -0.432,-1.883 -1.132,-3.514 -2.102,-4.885 -0.969,-1.375 -2.222,-2.451 -3.756,-3.232 -1.534,-0.781 -3.38,-1.172 -5.533,-1.172 -2.049,0 -3.932,0.352 -5.654,1.051 -1.727,0.701 -3.045,1.428 -3.96,2.182 l 0,26.577 z" /><path
         style="fill:#ffffff"
         id="path23"
         d="m 194.546,134.53 c -1.725,0.432 -4,0.889 -6.826,1.374 -2.827,0.483 -6.1,0.726 -9.816,0.726 -3.23,0 -5.95,-0.472 -8.158,-1.413 -2.209,-0.941 -3.986,-2.274 -5.331,-3.998 -1.348,-1.724 -2.315,-3.757 -2.909,-6.101 -0.593,-2.341 -0.889,-4.939 -0.889,-7.795 l 0,-23.589 7.512,0 0,21.973 c 0,5.117 0.809,8.779 2.424,10.986 1.617,2.211 4.336,3.314 8.159,3.314 0.81,0 1.644,-0.029 2.505,-0.083 0.859,-0.053 1.668,-0.122 2.424,-0.202 0.754,-0.081 1.44,-0.161 2.061,-0.242 0.618,-0.08 1.062,-0.173 1.331,-0.283 l 0,-35.463 7.514,0 0,40.796 z" /><path
         style="fill:#ffffff"
         id="path25"
         d="m 205.37,94.947 c 1.723,-0.432 4.01,-0.889 6.867,-1.375 2.852,-0.484 6.138,-0.727 9.854,-0.727 3.34,0 6.113,0.473 8.32,1.414 2.208,0.943 3.972,2.262 5.293,3.959 1.317,1.695 2.246,3.729 2.786,6.098 0.538,2.373 0.808,4.984 0.808,7.837 l 0,23.588 -7.513,0 0,-21.973 c 0,-2.584 -0.176,-4.791 -0.525,-6.624 -0.351,-1.833 -0.929,-3.313 -1.737,-4.442 -0.808,-1.133 -1.885,-1.953 -3.231,-2.465 -1.346,-0.514 -3.018,-0.768 -5.007,-0.768 -0.811,0 -1.645,0.027 -2.504,0.08 -0.862,0.055 -1.686,0.121 -2.464,0.203 -0.784,0.08 -1.481,0.176 -2.102,0.281 -0.62,0.109 -1.063,0.189 -1.333,0.242 l 0,35.464 -7.512,0 0,-40.792 z" /><path
         style="fill:#ffffff"
         id="path27"
         d="m 256.665,93.734 15.914,0 0,6.301 -15.914,0 0,19.388 c 0,2.1 0.161,3.84 0.485,5.212 0.324,1.372 0.809,2.451 1.454,3.229 0.646,0.781 1.452,1.333 2.423,1.656 0.97,0.324 2.1,0.487 3.392,0.487 2.314,0 4.147,-0.258 5.494,-0.771 1.345,-0.511 2.262,-0.874 2.748,-1.09 l 1.614,6.141 c -0.755,0.378 -2.088,0.863 -3.999,1.453 -1.912,0.593 -4.078,0.889 -6.502,0.889 -2.856,0 -5.212,-0.362 -7.07,-1.089 -1.856,-0.729 -3.351,-1.817 -4.482,-3.273 -1.131,-1.453 -1.925,-3.243 -2.382,-5.372 -0.46,-2.126 -0.688,-4.59 -0.688,-7.391 l 0,-37.483 7.513,-1.293 0,13.006 z" /><path
         style="fill:#ffffff"
         id="path29"
         d="m 313.455,134.53 c -1.726,0.432 -3.999,0.889 -6.826,1.374 -2.827,0.483 -6.101,0.726 -9.814,0.726 -3.232,0 -5.952,-0.472 -8.161,-1.413 -2.209,-0.941 -3.986,-2.274 -5.33,-3.998 -1.348,-1.724 -2.316,-3.757 -2.91,-6.101 -0.592,-2.341 -0.889,-4.939 -0.889,-7.795 l 0,-23.589 7.515,0 0,21.973 c 0,5.117 0.808,8.779 2.424,10.986 1.614,2.211 4.334,3.314 8.159,3.314 0.807,0 1.641,-0.029 2.504,-0.083 0.859,-0.053 1.667,-0.122 2.422,-0.202 0.754,-0.081 1.441,-0.161 2.061,-0.242 0.617,-0.08 1.063,-0.173 1.334,-0.283 l 0,-35.463 7.513,0 0,40.796 z" /></g></g></svg>