<svg width="48" height="48" version="1.1" viewBox="0 0 48 48" xmlns="http://www.w3.org/2000/svg">
 <g transform="translate(-164.21 -222.91)">
  <g transform="translate(164.21 222.91)">
   <path d="m1 43v0.25c0 2.216 1.784 4 4 4h38c2.216 0 4-1.784 4-4v-0.25c0 2.216-1.784 4-4 4h-38c-2.216 0-4-1.784-4-4zm0 0.5v0.5c0 2.216 1.784 4 4 4h38c2.216 0 4-1.784 4-4v-0.5c0 2.216-1.784 4-4 4h-38c-2.216 0-4-1.784-4-4z" style="opacity:.02"/>
   <path d="m1 43.25v0.25c0 2.216 1.784 4 4 4h38c2.216 0 4-1.784 4-4v-0.25c0 2.216-1.784 4-4 4h-38c-2.216 0-4-1.784-4-4z" style="opacity:.05"/>
   <path d="m1 43v0.25c0 2.216 1.784 4 4 4h38c2.216 0 4-1.784 4-4v-0.25c0 2.216-1.784 4-4 4h-38c-2.216 0-4-1.784-4-4z" style="opacity:.1"/>
  </g>
  <g transform="translate(164.21 222.91)">
   <rect transform="rotate(-90)" x="-47" y="1" width="46" height="46" rx="4" style="fill:#3a4b59"/>
  </g>
  <path d="m178.42 231.6c-2.1158 3e-5 -3.4474 0.5383-4.0063 1.6161-0.27945 0.55892-0.46455 1.0579-0.5444 1.497-0.04 0.43916-0.0596 1.1232-0.0596 2.0414v33.156h10.241v-10.343c1.4771 1.8364 3.8544 2.7559 7.128 2.7559 3.2735 0 6.3461-1.5363 9.2204-4.6102 2.9142-3.0739 4.372-6.6455 4.372-10.717-4e-5 -4.0719-1.4578-7.652-4.372-10.726-2.9142-3.0739-6.0064-4.6102-9.28-4.6102-3.2336 3e-5 -5.611 1.0373-7.1279 3.1132-0.11986-1.0379-0.55994-1.8116-1.3184-2.3306-0.71858-0.55887-2.1372-0.84206-4.253-0.84209zm10.905 10.301c1.5569 1e-5 2.81 0.53827 3.7681 1.6161 0.9581 1.0379 1.4375 2.2211 1.4375 3.5384-3e-5 1.3174-0.51866 2.492-1.5566 3.53-0.99804 1.038-2.24 1.5566-3.7171 1.5566-1.4372 2e-5 -2.6314-0.51861-3.5895-1.5566-0.9182-1.0779-1.378-2.2524-1.378-3.53-1e-5 -1.2775 0.45975-2.4606 1.378-3.5384 0.91817-1.0779 2.1405-1.6161 3.6576-1.6161z" style="fill:#fff"/>
  <g transform="translate(164.21 -781.45)">
   <path d="m1 1043.4v4c0 2.216 1.784 4 4 4h38c2.216 0 4-1.784 4-4v-4c0 2.216-1.784 4-4 4h-38c-2.216 0-4-1.784-4-4z" style="opacity:.1"/>
  </g>
 </g>
</svg>
